<svg xmlns="http://www.w3.org/2000/svg" width="293" height="20" viewBox="0 0 293 20" fill="none" nighteye="disabled">
    <path d="M0 0.259735H8.89464C11.2491 0.259735 12.8187 0.779216 13.8652 2.07792C14.65 2.85714 15.1732 4.15584 15.1732 5.45454C15.1732 7.53246 14.1268 8.83116 12.5571 9.61039C15.1732 10.3896 16.4812 11.6883 16.4812 14.2857C16.4812 17.9221 13.6036 19.4805 9.15625 19.4805H0V0.259735ZM8.10982 8.05194C9.94107 8.05194 11.2491 7.53246 11.2491 5.97402C11.2491 4.67532 10.2027 3.8961 8.37143 3.8961H4.18571V8.05194H8.10982ZM9.15625 15.8442C10.9875 15.8442 12.2955 15.0649 12.2955 13.7662C12.2955 12.4675 11.2491 11.6883 9.15625 11.6883H4.18571V15.8442H9.15625Z" fill="black"/>
    <path d="M28.2534 0.259735H32.4391V15.5844H42.1186V19.4805H28.2534V0.259735Z" fill="black"/>
    <path d="M60.6927 0.259735H64.6168L72.9882 19.7403H68.5409L66.7097 15.3247H58.5999L56.7686 19.7403H52.3213L60.6927 0.259735ZM65.14 11.6883L62.524 5.45454L59.9079 11.6883H65.14Z" fill="black"/>
    <path d="M111.706 0.259735H115.892V8.57142L123.74 0.259735H128.972L121.124 8.57142L129.495 19.7403H124.263L118.246 11.4286L115.892 13.7662V19.7403H111.706V0.259735Z" fill="black"/>
    <path d="M156.964 0.259735H161.15V7.7922H168.998V0.259735H173.184V19.4805H168.998V11.6883H161.15V19.4805H156.964V0.259735Z" fill="black"/>
    <path d="M218.442 0.259735H222.366L231.522 12.2078V0.259735H235.708V19.4805H232.045L222.628 7.27272V19.4805H218.442V0.259735Z" fill="black"/>
    <path d="M248.788 0.259735H263.438V4.15584H252.974V8.05194H262.13V11.948H252.974V16.1039H263.438V20H248.527V0.259735H248.788Z" fill="black"/>
    <path d="M281.228 11.948L273.641 0.259735H278.612L283.321 8.05194L288.03 0.259735H293L285.413 11.948V19.7403H281.228V11.948Z" fill="black"/>
    <path d="M199.345 4.15585L202.746 9.87013L199.345 15.5844H192.543L189.142 9.87013L192.543 4.15585H199.345ZM201.699 0H190.188L184.433 9.87013L190.188 19.7403H201.699L207.455 9.87013L201.699 0Z" fill="black"/>
    <path d="M96.5329 15.5844H89.9927L86.8535 9.87012L89.9927 4.41558H96.5329L99.149 0.259735H87.6383L82.1445 9.87012L87.6383 19.7403H99.149L96.5329 15.5844Z" fill="black"/>
</svg>
